<svg width="60" height="60" xmlns="http://www.w3.org/2000/svg" xmlns:xlink="http://www.w3.org/1999/xlink" overflow="hidden"><defs><clipPath id="clip0"><rect x="0" y="0" width="60" height="60"/></clipPath></defs><g clip-path="url(#clip0)"><path d="M49.6 3 10.4 3C5.761 3 2 7.029 2 12L2 36C2 40.971 5.761 45 10.4 45L27.2 45 27.2 51 16 51C14.3431 51.1133 13.0918 52.5482 13.2051 54.2051 13.3075 55.7042 14.5009 56.8975 16 57L44 57C45.6569 56.8867 46.9082 55.4518 46.7949 53.7949 46.6925 52.2958 45.4991 51.1025 44 51L32.8 51 32.8 45 49.6 45C54.239 45 58 40.971 58 36L58 12C58 7.029 54.239 3 49.6 3ZM52.4 36C52.4534 37.6009 51.2008 38.943 49.6 39L10.4 39C8.79918 38.943 7.5466 37.6009 7.6 36L7.6 12C7.5466 10.3991 8.79918 9.05701 10.4 9L49.6 9C51.2008 9.05701 52.4534 10.3991 52.4 12Z" fill="#5640FF"/></g></svg>