<svg width="60" height="60" xmlns="http://www.w3.org/2000/svg" xmlns:xlink="http://www.w3.org/1999/xlink" overflow="hidden"><defs><clipPath id="clip0"><rect x="0" y="0" width="60" height="60"/></clipPath></defs><g clip-path="url(#clip0)"><path d="M22.5 27.5C28.0228 27.5 32.5 23.0228 32.5 17.5 32.5 11.9772 28.0228 7.5 22.5 7.5 16.9772 7.5 12.5 11.9772 12.5 17.5 12.5 23.0228 16.9772 27.5 22.5 27.5ZM22.5 12.5C25.2614 12.5 27.5 14.7386 27.5 17.5 27.5 20.2614 25.2614 22.5 22.5 22.5 19.7386 22.5 17.5 20.2614 17.5 17.5 17.5 14.7386 19.7386 12.5 22.5 12.5Z" fill="#5640FF"/><path d="M42.5 32.5C46.6421 32.5 50 29.1421 50 25 50 20.8579 46.6421 17.5 42.5 17.5 38.3579 17.5 35 20.8579 35 25 35 29.1421 38.3579 32.5 42.5 32.5ZM42.5 22.5C43.8807 22.5 45 23.6193 45 25 45 26.3807 43.8807 27.5 42.5 27.5 41.1193 27.5 40 26.3807 40 25 40 23.6193 41.1193 22.5 42.5 22.5Z" fill="#5640FF"/><path d="M42.5 35C39.7296 35.0031 37.0386 35.9264 34.85 37.625 28.0024 30.8043 16.922 30.8261 10.1013 37.6737 6.84008 40.9477 5.00625 45.3788 5 50 5 51.3807 6.11929 52.5 7.5 52.5 8.88071 52.5 10 51.3807 10 50 10 43.0964 15.5964 37.5 22.5 37.5 29.4036 37.5 35 43.0964 35 50 35 51.3807 36.1193 52.5 37.5 52.5 38.8807 52.5 40 51.3807 40 50 40.006 47.0711 39.2661 44.1889 37.85 41.625 41.0999 39.0569 45.8164 39.6096 48.3845 42.8595 49.4288 44.181 49.9979 45.8157 50 47.5 50 48.8807 51.1193 50 52.5 50 53.8807 50 55 48.8807 55 47.5 55 40.5964 49.4036 35 42.5 35Z" fill="#5640FF"/></g></svg>