<svg width="60" height="60" xmlns="http://www.w3.org/2000/svg" xmlns:xlink="http://www.w3.org/1999/xlink" overflow="hidden"><defs><clipPath id="clip0"><rect x="0" y="0" width="60" height="60"/></clipPath></defs><g clip-path="url(#clip0)"><path d="M47.5 17.5 40 17.5 40 13.75C40 10.2982 37.2018 7.5 33.75 7.5L26.25 7.5C22.7982 7.5 20 10.2982 20 13.75L20 17.5 12.5 17.5C8.35786 17.5 5 20.8579 5 25L5 45C5 49.1421 8.35786 52.5 12.5 52.5L47.5 52.5C51.6421 52.5 55 49.1421 55 45L55 25C55 20.8579 51.6421 17.5 47.5 17.5ZM37.5 22.5 37.5 47.5 22.5 47.5 22.5 22.5ZM25 13.75C25 13.0596 25.5596 12.5 26.25 12.5L33.75 12.5C34.4404 12.5 35 13.0596 35 13.75L35 17.5 25 17.5ZM10 45 10 25C10 23.6193 11.1193 22.5 12.5 22.5L17.5 22.5 17.5 47.5 12.5 47.5C11.1193 47.5 10 46.3807 10 45ZM50 45C50 46.3807 48.8807 47.5 47.5 47.5L42.5 47.5 42.5 22.5 47.5 22.5C48.8807 22.5 50 23.6193 50 25Z" fill="#5640FF"/></g></svg>