<svg width="27" height="45" xmlns="http://www.w3.org/2000/svg" xmlns:xlink="http://www.w3.org/1999/xlink" overflow="hidden"><defs><clipPath id="clip0"><rect x="0" y="0" width="27" height="45"/></clipPath></defs><g clip-path="url(#clip0)"><path d="M1.32698 43.5296 2.0295 43.5296C2.0715 43.5307 2.10645 43.4975 2.10755 43.4555 2.10759 43.4542 2.10759 43.4529 2.10755 43.4515L2.10755 39.0052C2.10866 38.9632 2.07551 38.9283 2.0335 38.9272 2.03217 38.9271 2.03083 38.9271 2.0295 38.9272L1.24892 38.9272 1.24892 37.7553 3.97995 37.7553C4.058 37.7553 4.058 37.7553 4.058 37.8334L4.058 43.3735C4.0569 43.4155 4.09005 43.4504 4.13206 43.4515 4.13339 43.4516 4.13473 43.4516 4.13606 43.4515L4.83858 43.4515 4.83858 44.5443 1.32698 44.5443ZM2.0295 35.96C2.03951 35.4043 2.48757 34.9562 3.04326 34.9462 3.60341 34.9287 4.07168 35.3687 4.08917 35.9288 4.10666 36.489 3.66673 36.9572 3.10658 36.9747 3.08547 36.9754 3.06436 36.9754 3.04326 36.9747 2.48757 36.9647 2.03951 36.5167 2.0295 35.961Z" fill="#FFFFFF"/><path d="M12.7204 43.5306C12.6784 43.5317 12.6435 43.4985 12.6424 43.4565 12.6423 43.4552 12.6423 43.4538 12.6424 43.4525L12.6424 36.042C12.6424 35.9639 12.6424 35.9639 12.5643 35.9639L9.83327 35.9639 9.83327 37.0567 10.6138 37.0567C10.6559 37.0556 10.6908 37.0888 10.6919 37.1308 10.6919 37.1321 10.6919 37.1335 10.6919 37.1348L10.6919 38.5398C10.2197 37.954 9.49243 37.6339 8.74146 37.6812 7.41448 37.6812 5.77724 38.6959 5.77724 41.2709 5.77724 43.8458 7.25935 44.7044 8.66439 44.7044 9.45372 44.7144 10.2135 44.4047 10.771 43.8458L10.771 44.2361C10.7844 44.4458 10.9515 44.6129 11.1612 44.6263L13.502 44.6263 13.502 43.5306ZM9.20881 43.6086C8.42824 43.6086 7.64766 43.1403 7.64766 41.2679 7.64766 39.5516 8.42824 39.0052 9.36394 39.0052 9.81028 39.065 10.2373 39.2251 10.6129 39.4736L10.6129 42.9852C10.2276 43.344 9.73333 43.5635 9.20881 43.6086Z" fill="#FFFFFF"/><path d="M14.2025 42.671C14.2025 41.2659 15.3734 40.5644 16.9335 40.5644 17.4059 40.5685 17.8767 40.6205 18.3386 40.7195L18.3386 40.018C18.3386 39.3155 17.9483 39.0032 17.1677 39.0032 16.0749 39.0032 15.7627 39.3155 15.6066 39.6277L14.7479 39.6277 14.7479 38.3017C14.7468 38.2597 14.78 38.2248 14.822 38.2237 14.8233 38.2236 14.8247 38.2236 14.826 38.2237 15.7145 37.8546 16.6759 37.6944 17.6361 37.7553 19.4304 37.7553 20.3671 38.3017 20.3671 39.8619L20.3671 43.4515C20.3671 43.5296 20.3671 43.5296 20.4451 43.5296L21.0696 43.5296 21.0696 44.6224 18.885 44.6224C18.6818 44.6348 18.5071 44.4801 18.4947 44.2769 18.4938 44.262 18.4938 44.247 18.4947 44.2321L18.4947 43.8418C18.0241 44.4298 17.2957 44.7505 16.5442 44.7004 15.1392 44.7004 14.2025 43.9979 14.2025 42.671ZM18.3386 43.0612 18.3386 41.7353C18.0086 41.6393 17.6674 41.5868 17.3238 41.5791 16.5433 41.5791 16.0749 41.8914 16.0749 42.5939 16.0749 43.2964 16.4652 43.6086 17.1677 43.6086 17.6159 43.5919 18.0383 43.3944 18.3386 43.0612Z" fill="#FFFFFF"/><path d="M21.616 37.8383 22.3185 37.8383 22.3185 35.961 24.1959 35.961 24.1959 37.8383 25.6009 37.8383 25.6009 39.0042 24.1909 39.0042 24.1909 43.5306C24.1898 43.5726 24.223 43.6075 24.265 43.6086 24.2663 43.6087 24.2676 43.6087 24.269 43.6086L25.596 43.6086 25.596 44.7014 22.6317 44.7014C22.422 44.688 22.2549 44.5209 22.2415 44.3111L22.2415 39.0042 21.5379 39.0042 21.5379 37.8383Z" fill="#FFFFFF"/><path d="M9.28786 0.29955C7.3389 0.230532 5.68384 1.71412 5.54011 3.65899L5.54011 3.65899C5.57533 4.13071 5.22987 4.54526 4.75953 4.59568L4.75953 4.59568C3.17634 4.90164 2.01252 6.25786 1.95045 7.86915 1.9448 8.24645 2.02486 8.62011 2.18462 8.96196L2.18462 8.96196C2.18462 9.04002 2.26268 9.11807 2.26268 9.19613 2.37415 9.54304 2.24777 9.92218 1.95045 10.1328L1.87733 10.1328C1.83533 10.1317 1.80038 10.1649 1.79928 10.2069 1.79924 10.2082 1.79924 10.2095 1.79928 10.2109L1.79928 10.2109C0.697302 10.7501-0.000997209 11.8702-1.97882e-08 13.097 0.00245712 13.7358 0.192454 14.3597 0.546403 14.8914L0.546403 14.8914C0.546403 14.8914 1.17086 15.6719 0.780575 16.2964 0.702518 16.3745 0.702518 16.4525 0.62446 16.4525L0.62446 16.4525C0.231378 17.0569 0.0150853 17.7592 2.87401e-08 18.48 0.00213068 19.4838 0.461949 20.4318 1.24892 21.0549L1.24892 21.0549C1.58369 21.377 1.70496 21.8621 1.56115 22.3039L1.56115 22.3039C1.40828 22.7026 1.32894 23.1258 1.32698 23.5528 1.43376 25.4344 2.958 26.9239 4.84154 26.9873L4.76052 26.9873C5.20154 27.0592 5.54725 27.4049 5.61915 27.846L5.61915 27.846C6.03029 29.5609 7.60346 30.7407 9.36493 30.655 11.2864 30.7279 12.9302 29.2871 13.1097 27.3727L13.1097 27.3727 13.1097 17.4673C13.104 17.3835 13.0373 17.3169 12.9536 17.3111 12.3291 17.3892 9.67617 17.7795 9.52005 17.8576 9.36394 17.8576 9.36394 17.7795 9.36394 17.7014 9.36394 17.6234 13.1097 3.73309 13.1097 3.73309 12.9866 1.7372 11.2855 0.208908 9.28786 0.29955Z" fill="#FFFFFF"/><path d="M26.3755 14.9694 26.3755 14.9694C26.7425 14.444 26.9337 13.8159 26.9219 13.1751 26.9057 11.9347 26.2191 10.8004 25.1276 10.2109L25.1276 10.2109C25.0856 10.212 25.0507 10.1788 25.0495 10.1368 25.0495 10.1355 25.0495 10.1342 25.0495 10.1328L24.9715 10.1328C24.6714 9.96147 24.5394 9.59824 24.6593 9.27419 24.6593 9.19613 24.7373 9.11807 24.7373 9.04002L24.7373 9.04002C24.8971 8.69816 24.9771 8.32451 24.9715 7.94721 24.9112 6.33442 23.747 4.97609 22.1624 4.66978L22.1624 4.66978C21.6921 4.61937 21.3466 4.20481 21.3818 3.73309L21.3818 3.73309C21.3257 1.77813 19.6953 0.238845 17.7403 0.295014 17.7056 0.296014 17.6708 0.297526 17.6361 0.29955 15.6549 0.21206 13.978 1.74716 13.8905 3.72829 13.8904 3.72989 13.8904 3.73149 13.8903 3.73309L13.8903 13.6385C13.896 13.7222 13.9627 13.7889 14.0464 13.7946 14.1245 13.7946 16.8555 13.3263 17.4799 13.2482 17.6361 13.2482 17.6361 13.3263 17.6361 13.4043 17.6361 13.4824 13.8903 27.3727 13.8903 27.3727L13.8903 27.3727C14.0723 29.2856 15.7159 30.7237 17.6361 30.6501 19.3879 30.7048 20.9437 29.5381 21.3818 27.841L21.3818 27.841C21.4537 27.4 21.7995 27.0543 22.2405 26.9824L22.1624 26.9824C24.0444 26.9175 25.5668 25.4289 25.674 23.5488 25.6793 23.1211 25.5997 22.6966 25.4398 22.2999L25.4398 22.2999C25.2729 21.8593 25.3974 21.3613 25.7521 21.051L25.7521 21.051C26.5376 20.4285 26.9969 19.4823 27 18.48 26.9917 17.7086 26.7158 16.964 26.2194 16.3735 25.7471 15.75 26.3755 14.9694 26.3755 14.9694Z" fill="#FFFFFF"/></g></svg>