<svg width="102" height="20" xmlns="http://www.w3.org/2000/svg" xmlns:xlink="http://www.w3.org/1999/xlink" overflow="hidden"><defs><clipPath id="clip0"><rect x="0" y="0" width="102" height="20"/></clipPath></defs><g clip-path="url(#clip0)"><path d="M2.72262 0C1.24756 0.00884266 0.0577195 1.20946 0.0621707 2.68453L0.0621707 19.8806 17.2833 19.8806C18.7504 19.8828 19.9415 18.6953 19.9437 17.2282 19.9438 17.2255 19.9438 17.2228 19.9437 17.2201L19.9438 0 2.72262 0ZM15.2882 14.3509 4.69361 16.2467 4.69361 5.55773 15.2882 3.65799Z" fill="#000425" fill-rule="evenodd"/><path d="M53.4587 5.77149C50.3236 5.77149 48.1148 8.0285 48.0907 11.6855 48.0411 14.6137 50.3748 17.0277 53.303 17.0773 53.3549 17.0782 53.4068 17.0783 53.4587 17.0776 54.5817 17.2029 55.714 16.9432 56.6701 16.341L56.6701 14.4894C55.827 14.8676 54.9105 15.0541 53.9866 15.0354 52.4575 15.1791 51.0614 14.16 50.7321 12.6599L50.708 12.5174 52.68 12.5174C54.0203 12.6229 55.3673 12.4282 56.623 11.9474 57.4021 11.5917 57.8696 10.7807 57.7871 9.92825 57.8069 7.6498 55.9759 5.7867 53.6975 5.7669 53.6195 5.76622 53.5416 5.76775 53.4638 5.77149M54.7463 10.5695C53.8868 10.7949 52.997 10.883 52.1099 10.8304L50.732 10.8304 50.7561 10.6879 50.7802 10.3076C50.8003 8.96074 51.8803 7.87008 53.2269 7.83682 53.8002 7.80561 54.3677 7.96434 54.8416 8.28843 55.2467 8.6086 55.4758 9.10207 55.4588 9.61815 55.4837 10.0659 55.1831 10.4668 54.7463 10.5685M59.162 9.9985 59.162 16.8869 61.7271 16.8869 61.7271 10.4742C61.6726 9.79916 61.8577 9.12653 62.2499 8.57444 62.6434 8.16296 63.1981 7.94564 63.7663 7.98033 63.9966 7.98171 64.2265 7.99746 64.4548 8.0275L64.4548 6.00933C64.0483 5.81333 63.6014 5.71569 63.1501 5.72432 60.3 5.77149 59.1831 7.81474 59.16 9.9995M25.4302 16.912 27.9953 16.912 27.9953 2.99262 25.4302 2.99262ZM34.8838 5.77249C32.393 5.5556 30.198 7.39896 29.9811 9.88977 29.9655 10.0687 29.9606 10.2485 29.9663 10.428L29.9663 16.912 32.5314 16.912 32.5314 10.5896C32.4979 9.90592 32.7084 9.23258 33.1255 8.68985 33.5169 8.23489 34.0933 7.98174 34.6931 8.00141 35.3457 7.95602 35.9835 8.20926 36.4273 8.68985 36.8842 9.29638 37.1114 10.0452 37.0685 10.8034L37.0686 16.912 39.6106 16.912 39.6106 10.5695C39.7466 8.05745 37.8205 5.91072 35.3084 5.77467 35.167 5.76701 35.0253 5.76595 34.8838 5.77149M44.0764 2.99262 41.5585 2.99262 41.5585 13.0403C41.5585 15.6054 42.8631 17.1017 45.644 17.1017 46.5047 17.2251 47.3583 16.8353 47.8287 16.1042L47.8287 14.5125C47.2378 14.7356 46.6068 14.8327 45.9762 14.7975 45.4576 14.8393 44.946 14.6566 44.5712 14.2958 44.202 13.8423 44.0223 13.2638 44.0694 12.681L44.0694 8.00442 46.3043 8.00442C47.3972 8.00442 47.8478 7.31597 47.8478 6.8172L47.8478 5.79557 44.0764 5.79557Z" fill="#000425"/><path d="M85.8808 9.97541 85.8808 16.888 88.4459 16.888 88.4459 10.4752C88.387 9.80694 88.5728 9.14005 88.9688 8.59852 89.3632 8.18605 89.9196 7.96865 90.4892 8.00442 90.7274 8.0067 90.9653 8.02245 91.2017 8.05158L91.2017 6.03242C90.7938 5.84289 90.3465 5.75344 89.8971 5.77149 87.0229 5.77149 85.8828 7.79066 85.8828 9.97541" fill="#000425"/><path d="M79.5865 5.74841C76.2135 5.74841 74.4322 8.35767 74.4322 11.6393 74.4322 14.5376 76.2386 16.9833 79.3728 16.9833 82.7216 16.9833 84.527 14.5366 84.527 11.263 84.527 8.36469 82.7206 5.75242 79.5865 5.75242M79.5865 14.66C77.8052 14.66 77.0455 13.4728 77.0455 11.263 77.0455 9.41041 77.8292 8.07969 79.3737 8.07969 81.131 8.07969 81.9158 9.4094 81.9158 11.6664 81.9158 13.4949 81.1561 14.659 79.5875 14.659" fill="#000425"/><path d="M67.9472 12.0187 67.9712 12.1612C68.1576 13.7048 69.4573 14.8724 71.012 14.8929 71.9371 14.9211 72.856 14.7342 73.6966 14.3469L73.6966 16.1082C72.7718 16.7961 71.6363 17.1403 70.4852 17.0816 67.5079 17.1082 65.0727 14.7162 65.0461 11.7389 65.0459 11.7224 65.0459 11.706 65.0459 11.6895 65.0459 8.03151 67.326 5.79859 70.4651 5.77551L70.4892 5.77551C71.6387 5.69962 72.7775 6.03664 73.7006 6.72588L73.7006 8.48111C72.8601 8.09386 71.9411 7.90698 71.0161 7.93517 69.4654 7.94541 68.1635 9.10553 67.9753 10.6448 67.9041 11.1008 67.896 11.5645 67.9512 12.0227" fill="#000425"/><path d="M97.188 5.86683C93.4828 5.86683 91.9383 8.38477 91.9383 12.0187L91.9383 18.0993C91.9001 19.1095 92.688 19.9594 93.6983 19.9977 93.7214 19.9986 93.7446 19.999 93.7678 19.999L94.5707 19.999 94.5707 15.7017C95.1121 16.6397 96.1245 17.205 97.2071 17.174 100.271 17.174 101.934 14.7745 101.934 11.26 101.958 8.50419 99.9628 5.86783 97.183 5.86783M97.1358 14.918C95.5682 14.918 94.5466 13.6826 94.5466 11.4737 94.5466 9.57399 95.3304 8.26233 96.7795 8.26233 98.4424 8.26233 99.2734 9.37829 99.2734 11.9675 99.2734 13.7247 98.3943 14.9129 97.1358 14.9129" fill="#000425"/></g></svg>