<svg width="184" height="33" xmlns="http://www.w3.org/2000/svg" xmlns:xlink="http://www.w3.org/1999/xlink" overflow="hidden"><defs><clipPath id="clip0"><rect x="0" y="0" width="184" height="33"/></clipPath></defs><g clip-path="url(#clip0)"><path d="M0 0.0244293 0 0.0244293 0 22.5197 7.80096 29.9782 22.1109 29.9782 23.1872 28.9458 21.0056 26.4247 20.7809 26.6493 9.13191 26.6493 3.31788 21.0999 3.31788 3.3473 26.595 3.3473 26.595 21.0999 26.1836 21.4893 28.3562 24.0104 29.9178 22.5217 29.9178 0.0244293ZM6.64275 6.67516 6.64275 6.67516 6.64275 19.116 11.0519 23.3205 18.3227 23.3205 15.4681 19.9986 15.4831 19.9906 12.3809 19.9906 9.96861 17.6882 9.96861 10.009 19.9442 10.009 19.9442 14.2585 23.2691 18.1115 23.2691 6.67616ZM13.2935 13.3329 13.2935 13.3329 13.2935 16.6617 15.1097 16.6617 26.595 29.9782 29.9198 29.9782 29.9198 26.6493 28.1046 26.6493 16.6223 13.3329Z" fill="#FFFFFF"/><path d="M51.9059 2.02434 43.9182 2.02434 43.9182 5.01972 51.9059 5.01972ZM53.8928 0.0274239 53.8928 0.0274239 53.8928 7.01664 43.9222 7.01664 43.9222 12.0089 41.9363 12.0089 41.9363 0.0274239Z" fill="#FFFFFF"/><path d="M66.9047 2.02434 58.9301 2.02434 58.9301 5.01972 66.9047 5.01972ZM68.9017 0.0274239 68.9017 0.0274239 68.9017 12.0089 66.9047 12.0089 66.9047 7.01664 58.9301 7.01664 58.9301 12.0089 56.9331 12.0089 56.9331 0.0274239Z" fill="#FFFFFF"/><path d="M83.8995 0.025425 83.8995 0.025425 83.8995 2.02234 73.9289 2.02234 73.9289 10.01 83.8995 10.01 83.8995 12.0069 71.943 12.0069 71.943 0.025425Z" fill="#FFFFFF"/><path d="M88.9387 7.01065 88.9387 7.01065 88.9387 12.0029 86.9418 12.0029 86.9418 0.0214348 88.9387 0.0214348 88.9387 5.01373 96.9134 5.01373 96.9134 0.0214348 98.9103 0.0214348 98.9103 12.0029 96.9134 12.0029 96.9134 7.01065Z" fill="#FFFFFF"/><path d="M111.918 2.02434 103.944 2.02434 103.944 5.01972 111.918 5.01972ZM113.915 0.0274239 113.915 0.0274239 113.915 12.0089 111.918 12.0089 111.918 7.01664 103.944 7.01664 103.944 12.0089 101.947 12.0089 101.947 0.0274239Z" fill="#FFFFFF"/><path d="M118.946 7.00965 116.95 7.00965 116.95 5.02072 118.946 5.02072Z" fill="#FFFFFF"/><path d="M131.959 2.02434 123.985 2.02434 123.985 10.012 126.969 10.012 126.969 8.01509 128.966 8.01509 128.966 10.012 131.961 10.012ZM133.956 0.0274239 133.956 0.0274239 133.956 12.0089 128.964 12.0089 128.964 14.0058 126.967 14.0058 126.967 12.0089 121.987 12.0089 121.987 0.0274239Z" fill="#FFFFFF"/><path d="M138.983 7.00965 136.987 7.00965 136.987 5.02072 138.983 5.02072Z" fill="#FFFFFF"/><path d="M153.992 0.025425 153.992 0.025425 153.992 2.02234 149 2.02234 149 12.0069 147.003 12.0069 147.003 2.02234 142.023 2.02234 142.023 0.025425Z" fill="#FFFFFF"/><path d="M168.991 0.025425 168.991 0.025425 168.991 2.02234 159.021 2.02234 159.021 5.01772 168.991 5.01772 168.991 7.00665 159.021 7.00665 159.021 10.002 168.991 10.002 168.991 11.9989 157.025 11.9989 157.025 0.017437Z" fill="#FFFFFF"/><path d="M172.033 0.025425 172.033 0.025425 172.033 12.0069 184 12.0069 184 10.01 174.029 10.01 174.029 2.02234 184 2.02234 184 0.025425Z" fill="#FFFFFF"/><text fill="#FFFFFF" font-family="Poppins,Poppins_MSFontService,sans-serif" font-weight="400" font-size="12" transform="matrix(0.998459 0 0 0.998459 41.9353 29)">ESCUELA DE CODING</text></g></svg>