<svg width="24" height="24" xmlns="http://www.w3.org/2000/svg" xmlns:xlink="http://www.w3.org/1999/xlink" overflow="hidden"><defs><clipPath id="clip0"><rect x="0" y="0" width="24" height="24"/></clipPath></defs><g clip-path="url(#clip0)"><path d="M20.05 11C20.5747 11 21 11.4253 21 11.95L21 12.05C21 12.5747 20.5747 13 20.05 13L3.95 13C3.42533 13 3 12.5747 3 12.05L3 11.95C3 11.4253 3.42533 11 3.95 11Z" fill="#FFFFFF"/><path d="M20.05 16C20.5747 16 21 16.4253 21 16.95L21 17.05C21 17.5747 20.5747 18 20.05 18L3.95 18C3.42533 18 3 17.5747 3 17.05L3 16.95C3 16.4253 3.42533 16 3.95 16Z" fill="#FFFFFF"/><path d="M20.05 6C20.5747 6 21 6.42533 21 6.95L21 7.05C21 7.57467 20.5747 8 20.05 8L3.95 8C3.42533 8 3 7.57467 3 7.05L3 6.95C3 6.42533 3.42533 6 3.95 6Z" fill="#FFFFFF"/></g></svg>