<svg width="94" height="24" xmlns="http://www.w3.org/2000/svg" xmlns:xlink="http://www.w3.org/1999/xlink" overflow="hidden"><defs><clipPath id="clip0"><rect x="0" y="0" width="94" height="24"/></clipPath></defs><g clip-path="url(#clip0)"><text fill="#FFFFFF" font-family="Poppins,Poppins_MSFontService,sans-serif" font-weight="700" font-size="14" transform="translate(34 17)">Ver más</text><path d="M12 2C6.47715 2 2 6.47715 2 12 2 17.5228 6.47715 22 12 22 17.5228 22 22 17.5228 22 12 22 6.47715 17.5228 2 12 2ZM12 20C7.58172 20 4 16.4183 4 12 4 7.58172 7.58172 4 12 4 16.4183 4 20 7.58172 20 12 20 16.4183 16.4183 20 12 20Z" fill="#FFFFFF"/><path d="M15 11 13 11 13 9C13 8.44771 12.5523 8 12 8 11.4477 8 11 8.44771 11 9L11 11 9 11C8.44771 11 8 11.4477 8 12 8 12.5523 8.44771 13 9 13L11 13 11 15C11 15.5523 11.4477 16 12 16 12.5523 16 13 15.5523 13 15L13 13 15 13C15.5523 13 16 12.5523 16 12 16 11.4477 15.5523 11 15 11Z" fill="#FFFFFF"/></g></svg>