<svg width="42" height="32" xmlns="http://www.w3.org/2000/svg" xmlns:xlink="http://www.w3.org/1999/xlink" overflow="hidden"><defs><clipPath id="clip0"><rect x="0" y="0" width="42" height="32"/></clipPath></defs><g clip-path="url(#clip0)"><path d="M41.707 32.001 0.300903 32.001 0.300903 18.4868 41.707 18.4868 41.707 32.001ZM21.9001 20.15 17.8817 30.3359 20.2478 30.3359 21.0779 28.0585 25.0568 28.0585 25.8662 30.3369 28.2954 30.3369 24.3066 20.15ZM29.2438 20.15 29.2438 30.3359 37.3278 30.3359 37.3278 28.4519 31.5842 28.4519 31.5842 25.9577 36.7491 25.9577 36.7491 24.2137 31.5664 24.2137 31.5664 22.0359 37.2065 22.0359 37.2065 20.15ZM9.04843 20.15 9.04843 30.3359 11.3898 30.3359 11.3898 26.6882 13.8545 26.6882C14.4334 26.6982 15.0093 26.6043 15.5551 26.4112 15.9839 26.2526 16.3741 26.0045 16.6997 25.6836 16.9926 25.3888 17.2124 25.0296 17.3415 24.6346 17.482 24.2477 17.5521 23.8387 17.5485 23.427 17.5427 23.0145 17.4728 22.6054 17.3415 22.2144 17.2051 21.8222 16.9862 21.4639 16.6997 21.1634 16.3767 20.8399 15.9876 20.59 15.559 20.4309 15.0133 20.2376 14.4373 20.1438 13.8584 20.1539ZM4.62981 20.15 4.62981 30.3359 6.97615 30.3359 6.97615 20.15ZM24.4545 26.4141 21.694 26.4141 23.0821 22.6679 23.0989 22.6679 24.4466 26.4141ZM13.2157 24.9472 11.3898 24.9472 11.3898 21.891 13.2157 21.891C13.4712 21.8905 13.7264 21.9106 13.9787 21.9511 14.2118 21.9775 14.4371 22.0506 14.6412 22.1661 14.8322 22.2744 14.9903 22.4325 15.0986 22.6235 15.2168 22.8717 15.2743 23.1443 15.2662 23.4191 15.2853 23.6925 15.2272 23.9657 15.0986 24.2078 14.9849 24.3944 14.8281 24.5509 14.6412 24.6642 14.4334 24.7711 14.2097 24.8437 13.9787 24.8791 13.7266 24.9223 13.4714 24.945 13.2157 24.9472Z" fill="#000425"/><path d="M4.89993 4.97366 0.649887 4.97366 0.649887 3.22968 8.09312 3.22968 8.09312 4.97366 3.49014 9.9276 8.40369 9.9276 8.40369 11.6716 0.296951 11.6716 0.296951 9.92662Z" fill="#000425"/><path d="M11.9498 9.64959C12.3912 10.0152 12.9551 10.1995 13.5272 10.1652 13.9754 10.1784 14.4169 10.0538 14.7921 9.80831 15.0827 9.64299 15.3091 9.38461 15.4348 9.07483L17.5702 9.07483C17.3215 9.96644 16.762 10.7396 15.9928 11.2546 15.2146 11.7106 14.3233 11.9372 13.4217 11.9082 12.7784 11.9214 12.1384 11.8137 11.5348 11.5907 11.0025 11.3961 10.5208 11.0844 10.125 10.6788 9.7305 10.28 9.4277 9.79987 9.23773 9.27201 9.02255 8.69514 8.9156 8.08354 8.92226 7.46788 8.91263 6.86357 9.02565 6.26358 9.25449 5.70418 9.66905 4.62825 10.5203 3.77847 11.5969 3.36572 12.1826 3.12832 12.8107 3.01357 13.4424 3.02856 14.123 3.01309 14.7979 3.15549 15.4141 3.44459 15.9491 3.70518 16.4172 4.08493 16.7825 4.55467 17.1431 5.03287 17.404 5.57867 17.5495 6.15965 17.7098 6.77327 17.7658 7.40947 17.7151 8.04165L11.3494 8.04165C11.3412 8.63388 11.5555 9.20765 11.9498 9.64959ZM14.7102 5.19153C14.3492 4.86388 13.8694 4.69917 13.3833 4.73607 13.0496 4.726 12.7177 4.78682 12.4092 4.91451 12.1751 5.02584 11.964 5.18036 11.7872 5.36998 11.6378 5.54285 11.5248 5.74402 11.4549 5.96149 11.394 6.14058 11.3591 6.32751 11.3514 6.51653L15.2948 6.51653C15.2292 6.0279 15.0254 5.56818 14.7073 5.19153Z" fill="#000425"/><path d="M27.5205 12.2848C27.41 12.7306 27.197 13.1445 26.8984 13.4935 26.5162 13.9149 26.0404 14.2408 25.5093 14.4448 24.3056 14.8761 23.0046 14.9585 21.7561 14.6824 21.3254 14.5907 20.9123 14.4303 20.5327 14.2072 20.17 14.0019 19.8583 13.7175 19.6208 13.3751 19.3621 13.0167 19.2174 12.5886 19.2057 12.1468L21.6112 12.1468C21.685 12.5346 21.9284 12.8691 22.2747 13.0587 22.6272 13.2393 23.0195 13.3278 23.4154 13.316 23.9786 13.3669 24.5325 13.1474 24.908 12.7245 25.2258 12.2962 25.387 11.7717 25.3644 11.2388L25.3644 10.1248 25.323 10.1248C25.0628 10.5631 24.6709 10.9081 24.2031 11.1106 23.7206 11.3258 23.1973 11.4341 22.6691 11.4281 22.0839 11.442 21.5026 11.3286 20.9655 11.0958 20.5069 10.8858 20.1023 10.574 19.7825 10.1839 19.4628 9.7874 19.2298 9.32832 19.0983 8.83626 18.9545 8.30015 18.8848 7.74687 18.8913 7.19184 18.8911 6.65372 18.9749 6.11887 19.1397 5.60658 19.2985 5.11734 19.5443 4.66079 19.8653 4.25891 20.5527 3.41537 21.5977 2.94548 22.6848 2.9911 23.2139 2.97637 23.7391 3.08506 24.2188 3.30854 24.6855 3.53574 25.0697 3.90274 25.318 4.35849L25.3595 4.35848 25.3595 3.22967 27.6693 3.22967 27.6693 11.1353C27.6546 11.5222 27.6048 11.9069 27.5205 12.2848ZM24.1824 9.47115C24.4335 9.35111 24.6535 9.17465 24.8251 8.95554 24.9924 8.7321 25.1254 8.48487 25.2195 8.22207 25.3026 7.93906 25.3445 7.64553 25.3437 7.35057 25.3418 7.01934 25.3071 6.68911 25.2402 6.36471 25.1798 6.06979 25.0673 5.78802 24.9079 5.53264 24.7472 5.29607 24.5344 5.09946 24.2858 4.95788 23.9765 4.80684 23.6353 4.73213 23.2911 4.74001 22.9886 4.72725 22.6881 4.7953 22.4206 4.93718 22.1782 5.07038 21.9664 5.25271 21.7985 5.4725 21.6248 5.70051 21.5045 5.96466 21.4466 6.24542 21.3701 6.54315 21.3353 6.85004 21.343 7.15734 21.3467 7.46402 21.3814 7.76955 21.4466 8.06925 21.501 8.35963 21.6137 8.63598 21.7778 8.8816 21.9307 9.12193 22.1364 9.32423 22.3792 9.47312 22.6608 9.64026 22.9846 9.72274 23.3118 9.71071 23.6144 9.68561 23.9096 9.60437 24.1823 9.47114Z" fill="#000425"/><path d="M31.9992 9.64959C32.4407 10.0152 33.0045 10.1995 33.5766 10.1652 34.0248 10.1784 34.4663 10.0538 34.8415 9.80831 35.1321 9.64299 35.3585 9.38461 35.4843 9.07483L37.6196 9.07483C37.371 9.96647 36.8115 10.7397 36.0422 11.2546 35.264 11.7106 34.3727 11.9372 33.4711 11.9082 32.8278 11.9214 32.1877 11.8137 31.5842 11.5907 31.0519 11.3961 30.5702 11.0845 30.1744 10.6788 29.7798 10.28 29.4771 9.7999 29.2871 9.27201 29.072 8.69514 28.965 8.08354 28.9716 7.46788 28.962 6.86357 29.075 6.26357 29.3039 5.70418 29.7184 4.62825 30.5697 3.77847 31.6463 3.36572 32.232 3.12835 32.86 3.0136 33.4919 3.02856 34.1724 3.01309 34.8473 3.15549 35.4636 3.44459 35.9985 3.70521 36.4666 4.08496 36.8319 4.55467 37.1925 5.0329 37.4533 5.57869 37.5989 6.15965 37.7592 6.77327 37.8152 7.40947 37.7646 8.04165L31.3988 8.04165C31.3811 8.63551 31.5966 9.2127 31.9992 9.64959ZM34.736 5.19153C34.3749 4.86327 33.8946 4.69817 33.408 4.73508 33.0744 4.72501 32.7424 4.78583 32.434 4.91352 32.1998 5.02483 31.9887 5.17936 31.8119 5.36899 31.6625 5.54183 31.5495 5.74301 31.4796 5.96051 31.4187 6.13959 31.3838 6.32652 31.3761 6.51554L35.3196 6.51554C35.2642 6.02513 35.0606 5.56327 34.736 5.19153Z" fill="#000425"/><path d="M41.703 0 41.703 11.6509 39.2769 11.6509 39.2769 0Z" fill="#000425"/></g></svg>